# xmcd
#
# Track frame offsets: 
#        150
#        22525
#        46822
#        66239
#        82246
#        104179
#        127056
#        152948
#        179016
#        198418
#        218410
#        233053
#        250112
#        271887
#        296002
#        304158
#
# Disc length: 4210 seconds
#
# Revision: 0
# Processed by: cddbd v1.5.2PL0 Copyright (c) Steve Scherf et al.
# Submitted via: ExactAudioCopy v0.95a4
#
DISCID=e9107010
DTITLE=Gene Heimlich - Forbidden Pleasures
DYEAR=1999
DGENRE=Blues
TTITLE0=Goin' Home (Where The Women Got Mean On Their Bones)
TTITLE1=Temptation
TTITLE2=Leavin' Hot Phoenix
TTITLE3=The Blues Don't Hurt Me (No More)
TTITLE4=Choices, Voices, Tears and Fears
TTITLE5=Sideshow
TTITLE6=Jealous Kind
TTITLE7=One Life To Live
TTITLE8=Honky Tonk
TTITLE9=Brown Eyed Girl
TTITLE10=Jelly Jam
TTITLE11=Never Say Never
TTITLE12=Desdemona's Ride
TTITLE13=Pay In Time
TTITLE14=Septimannia
TTITLE15=Lost John
EXTD=
EXTT0=
EXTT1=
EXTT2=
EXTT3=
EXTT4=
EXTT5=
EXTT6=
EXTT7=
EXTT8=
EXTT9=
EXTT10=
EXTT11=
EXTT12=
EXTT13=
EXTT14=
EXTT15=
PLAYORDER=
